<svg width="100%" height="100%" viewBox="0 0 200 200" version="1.1" xmlns="http://www.w3.org/2000/svg"
    xmlns:xlink="http://www.w3.org/1999/xlink" xml:space="preserve" xmlns:serif="http://www.serif.com/"
    style="fill-rule:evenodd;clip-rule:evenodd;stroke-linejoin:round;stroke-miterlimit:2;" fill="#fff">

    <g transform="matrix(1.47059,0,0,1.47059,-47.0588,-341.176)">
        <g transform="matrix(0.223776,0,0,0.257843,-1.09427,183.47)">
            <path
                d="M755.639,451.943C755.639,434.819 739.62,420.916 719.889,420.916L290.89,420.916C271.159,420.916 255.14,434.819 255.14,451.943C255.14,469.067 271.159,482.969 290.89,482.969L719.889,482.969C739.62,482.969 755.639,469.067 755.639,451.943Z" />
        </g>
    </g>
    <g transform="matrix(1.47059,0,0,1.47059,-47.0588,-341.176)">
        <g transform="matrix(1,0,0,1,2.84217e-14,-20)">
            <path
                d="M108,276L108,280C108,286.365 105.471,292.47 100.971,296.971C96.47,301.471 90.365,304 84,304L64,304C59.757,304 55.687,305.686 52.686,308.686C49.686,311.687 48,315.757 48,320C48,324.243 49.686,328.313 52.686,331.314C55.687,334.314 59.757,336 64,336L84,336C90.365,336 96.47,338.529 100.971,343.029C105.471,347.53 108,353.635 108,360C108,360 108,378.246 108,385.28C108,386.001 107.713,386.693 107.203,387.203C106.693,387.713 106.001,388 105.28,388C102.335,388 97.665,388 94.72,388C93.999,388 93.307,387.713 92.797,387.203C92.287,386.693 92,386.001 92,385.28C92,378.246 92,360 92,360C92,357.878 91.157,355.843 89.657,354.343C88.157,352.843 86.122,352 84,352L64,352C55.513,352 47.374,348.629 41.373,342.627C35.371,336.626 32,328.487 32,320C32,311.513 35.371,303.374 41.373,297.373C47.374,291.371 55.513,288 64,288L84,288C86.122,288 88.157,287.157 89.657,285.657C91.157,284.157 92,282.122 92,280L92,276L84,276L100,252L116,276L108,276Z" />
        </g>
    </g>
    <g transform="matrix(1.47059,0,0,1.47059,-47.0588,-341.176)">
        <g transform="matrix(0.221976,0,0,0.221976,24,200)">
            <path
                d="M486.54,744.586C486.54,747.836 485.249,750.953 482.951,753.251C480.653,755.549 477.536,756.84 474.286,756.84C461.019,756.84 439.981,756.84 426.714,756.84C423.464,756.84 420.347,755.549 418.049,753.251C415.751,750.953 414.46,747.836 414.46,744.586C414.46,704.155 414.46,575.265 414.46,534.834C414.46,531.584 415.751,528.467 418.049,526.169C420.347,523.871 423.464,522.58 426.714,522.58C439.981,522.58 461.019,522.58 474.286,522.58C477.536,522.58 480.653,523.871 482.951,526.169C485.249,528.467 486.54,531.584 486.54,534.834L486.54,744.586Z" />
        </g>
    </g>
</svg>