<?xml version="1.0" standalone="no"?>
<!DOCTYPE svg PUBLIC "-//W3C//DTD SVG 20010904//EN" "http://www.w3.org/TR/2001/REC-SVG-20010904/DTD/svg10.dtd">
<svg version="1.0" xmlns="http://www.w3.org/2000/svg" width="180.000000pt" height="180.000000pt"
    viewBox="0 0 180.000000 180.000000" preserveAspectRatio="xMidYMid meet">
    <metadata>
        Created by potrace 1.14, written by Peter Selinger 2001-2017
    </metadata>
    <g transform="translate(0.000000,180.000000) scale(0.100000,-0.100000)" fill="#000000" stroke="none">
        <path d="M880 1789 c0 -6 -20 -39 -44 -73 -24 -33 -43 -63 -43 -66 1 -5 -14
-24 -65 -83 -15 -18 -28 -35 -28 -39 0 -4 -11 -18 -25 -32 -14 -14 -25 -28
-25 -31 0 -17 -76 -77 -127 -102 -32 -15 -60 -28 -63 -28 -3 0 -16 -10 -30
-22 -13 -13 -29 -23 -36 -23 -6 0 -15 -7 -18 -16 -4 -9 -9 -14 -13 -11 -3 4
-17 -5 -30 -19 -12 -14 -23 -22 -23 -19 0 14 -125 -106 -133 -127 -3 -10 -11
-18 -17 -18 -5 0 -10 -7 -10 -15 0 -8 -4 -15 -10 -15 -5 0 -10 -5 -10 -11 0
-6 -6 -17 -13 -24 -31 -36 -39 -48 -57 -88 -11 -23 -20 -50 -20 -59 0 -10 -4
-18 -10 -18 -5 0 -10 -7 -10 -15 0 -8 -4 -15 -9 -15 -6 0 -10 -162 -11 -410
l-1 -410 901 0 900 0 0 900 0 900 -460 0 c-334 0 -460 -3 -460 -11z m95 -345
c39 -59 72 -111 73 -115 2 -5 -12 -9 -31 -9 l-34 0 -6 -56 c-8 -75 -48 -139
-111 -179 -48 -29 -54 -30 -200 -35 -170 -6 -203 -17 -238 -80 -39 -71 -4
-176 68 -206 23 -10 76 -14 167 -14 123 0 137 -2 184 -25 60 -30 100 -78 119
-143 17 -54 19 -284 4 -313 -16 -28 -124 -28 -140 0 -5 11 -10 78 -10 148 0
96 -4 134 -14 149 -13 17 -31 20 -168 25 -175 7 -216 19 -290 87 -71 65 -93
120 -93 227 0 81 3 95 30 144 34 62 106 121 178 145 34 11 85 16 182 16 132 0
134 0 154 26 12 15 21 37 21 50 0 21 -5 24 -35 24 -19 0 -35 5 -35 10 0 12
142 229 150 230 3 0 37 -48 75 -106z m529 -475 c13 -7 30 -25 37 -40 15 -37
-2 -82 -37 -98 -17 -8 -168 -11 -500 -11 l-475 0 -24 25 c-35 34 -34 86 1 114
26 21 36 21 500 21 330 0 481 -3 498 -11z m-303 -246 c17 -43 6 -452 -12 -464
-21 -13 -113 -11 -127 3 -17 17 -17 459 0 476 7 7 38 12 70 12 55 0 59 -2 69
-27z" />
    </g>
</svg>